PathFileType	4	(X/Y/Z)	E:\Qualisys_Data\Carbon_Farble_Plate\Data\Amateur_Runner\S14\T3\S14T3V23_c3d.trc
DataRate	CameraRate	NumFrames	NumMarkers	Units	OrigDataRate	OrigDataStartFrame	OrigNumFrames
200.000000	200.000000	4	39	mm	200.000000	0	286
Frame#	Time	LSHO			RSHO			LICST			RICST			LASIS			LHEEL			RASIS			LTROC			RTROC			SACR			LTH1			LSK4			LTH2			LTH3			RHM5			LSK2			LTH4			RTH1			LTOE			RTH2			RTH3			RTH4			LLEP			RLEP			LSK1			LSK3			RSK1			LHM5			RSK2			LFT1			RSK3			RSK4			LLME			RLME			RTOE			RHEEL			RFT1			RFT2			LFT2			
		X1	Y1	Z1	X2	Y2	Z2	X3	Y3	Z3	X4	Y4	Z4	X5	Y5	Z5	X6	Y6	Z6	X7	Y7	Z7	X8	Y8	Z8	X9	Y9	Z9	X10	Y10	Z10	X11	Y11	Z11	X12	Y12	Z12	X13	Y13	Z13	X14	Y14	Z14	X15	Y15	Z15	X16	Y16	Z16	X17	Y17	Z17	X18	Y18	Z18	X19	Y19	Z19	X20	Y20	Z20	X21	Y21	Z21	X22	Y22	Z22	X23	Y23	Z23	X24	Y24	Z24	X25	Y25	Z25	X26	Y26	Z26	X27	Y27	Z27	X28	Y28	Z28	X29	Y29	Z29	X30	Y30	Z30	X31	Y31	Z31	X32	Y32	Z32	X33	Y33	Z33	X34	Y34	Z34	X35	Y35	Z35	X36	Y36	Z36	X37	Y37	Z37	X38	Y38	Z38	X39	Y39	Z39	

1	0	-2993.132568359375	1481.260009765625	-469.0654296875	-3042.516845703125	1480.134399414062	-179.7152557373047	-3057.76953125	1033.843139648438	-467.0774841308594	-3050.252685546875	1027.752563476562	-194.3465881347656	-3023.84716796875	979.2062377929688	-447.1593933105469	-3655.400634765625	513.5538940429688	-335.3683166503906	-3024.467041015625	986.997314453125	-217.1320343017578	-3173.8681640625	934.3580322265625	-495.4861145019531	-3153.395751953125	900.738037109375	-162.2320098876953	-3193.926025390625	1035.322631835938	-338.9514770507812	-3186.265869140625	699.1175537109375	-492.5494995117188	-3489.248291015625	549.5193481445312	-426.9776000976562	-3257.418701171875	724.7642822265625	-466.6717224121094	-3209.65380859375	602.6793212890625	-472.4976501464844	-2702.3994140625	170.0954284667969	-165.0083465576172	-3397.559814453125	578.4953002929688	-451.5411071777344	-3282.987548828125	629.6138916015625	-450.3997192382812	-2958.0009765625	729.5234985351562	-167.6277313232422	-3688.53759765625	255.1728363037109	-399.7146301269531	-3030.28173828125	697.421630859375	-152.8543243408203	-2919.230224609375	641.1588745117188	-197.4474334716797	-2991.7919921875	605.886474609375	-175.8440551757812	-3291.371826171875	566.0512084960938	-465.7550048828125	-2937.327392578125	560.1112670898438	-183.8697509765625	-3374.6015625	500.8676147460938	-461.5367736816406	-3470.19189453125	471.9010925292969	-440.6636962890625	-2882.50830078125	449.670654296875	-181.8392333984375	-3707.22412109375	335.4375610351562	-445.408447265625	-2966.204833984375	422.2816772460938	-186.7633056640625	-3690.321044921875	495.4984741210938	-311.2457885742188	-2856.05810546875	349.9267883300781	-192.1945190429688	-2933.207763671875	331.6311340332031	-196.0382537841797	-3645.02685546875	466.4888610839844	-406.1311645507812	-2842.284423828125	168.3908996582031	-212.9423828125	-2639.056884765625	222.4154357910156	-222.3550109863281	-2875.6953125	116.4890441894531	-277.025390625	-2843.01513671875	97.83962249755859	-298.5680236816406	-2865.068115234375	91.63201904296875	-249.1842651367188	-3689.203857421875	513.169921875	-356.077880859375
2	0.005	-2972.165283203125	1479.057495117188	-468.2087097167969	-3021.339599609375	1477.091674804688	-178.9396209716797	-3036.87646484375	1031.689086914062	-467.7770690917969	-3027.999755859375	1026.7001953125	-193.6501617431641	-3002.177001953125	977.1306762695312	-446.7397155761719	-3632.2470703125	520.533447265625	-336.6848449707031	-3004.4892578125	984.6691284179688	-217.5885009765625	-3151.10791015625	930.9242553710938	-496.2609558105469	-3132.814697265625	897.8526000976562	-162.4956665039062	-3172.85400390625	1032.399291992188	-339.102783203125	-3159.6884765625	694.7642822265625	-492.9806213378906	-3460.64697265625	551.3226318359375	-429.089599609375	-3231.6845703125	719.50048828125	-467.172119140625	-3182.115966796875	598.0946044921875	-473.8249206542969	-2686.479248046875	165.7267913818359	-166.5066833496094	-3368.74365234375	576.587158203125	-456.4751586914062	-3256.03759765625	623.571533203125	-451.9512939453125	-2938.18896484375	727.7439575195312	-167.1224670410156	-3666.94384765625	266.2453308105469	-397.1208801269531	-3009.1982421875	695.1067504882812	-152.2623748779297	-2898.0458984375	640.1439208984375	-197.5261535644531	-2972.18115234375	603.796630859375	-176.8686828613281	-3262.647216796875	561.0177612304688	-468.3093566894531	-2917.978515625	557.3304443359375	-186.7866516113281	-3349.35888671875	498.5323791503906	-465.9951782226562	-3444.031494140625	472.8743896484375	-440.04052734375	-2862.861083984375	446.8883666992188	-183.3652801513672	-3684.51806640625	345.1466674804688	-443.3038940429688	-2946.49853515625	420.1154479980469	-187.6564788818359	-3661.68603515625	506.8731079101562	-310.4108276367188	-2838.3369140625	346.3530883789062	-193.7120056152344	-2913.804931640625	329.0955810546875	-197.2212219238281	-3618.31494140625	474.3753662109375	-405.8827819824219	-2825.764404296875	164.4750366210938	-214.6468658447266	-2622.635498046875	218.6347351074219	-222.7294769287109	-2858.393798828125	112.397346496582	-277.8842163085938	-2826.18017578125	94.55268096923828	-300.7741394042969	-2848.5361328125	88.10935974121094	-251.7714233398438	-3666.9599609375	523.8983764648438	-359.8332824707031
3	0.01	-2951.41015625	1476.902221679688	-468.1414489746094	-2999.85205078125	1473.994873046875	-177.4913330078125	-3015.791748046875	1029.2490234375	-467.7541809082031	-3007.973388671875	1023.660705566406	-193.9993133544922	-2980.529541015625	975.0474243164062	-446.5179748535156	-3606.279052734375	528.2958374023438	-337.5991821289062	-2981.6474609375	982.0843505859376	-216.6206512451172	-3128.99267578125	927.512451171875	-497.1272888183594	-3111.642578125	895.3994750976562	-162.583251953125	-3151.666748046875	1029.1103515625	-338.9558715820312	-3133.3701171875	690.4271850585938	-493.4984130859375	-3431.899169921875	552.9194946289062	-431.75	-3206.26171875	713.2518920898438	-468.7406616210938	-3154.3525390625	593.8060302734375	-474.5551452636719	-2671.98583984375	161.4196624755859	-168.1364593505859	-3338.985107421875	575.7178955078125	-458.1354064941406	-3228.423095703125	617.0828247070312	-453.0602111816406	-2917.05859375	726.1529541015625	-165.7502288818359	-3647.6494140625	275.3206787109375	-394.2566528320312	-2988.946533203125	693.4675903320312	-153.6365509033203	-2877.372314453125	638.2442626953125	-198.2553863525391	-2950.660888671875	602.4725952148438	-178.5818786621094	-3233.68505859375	555.80859375	-470.0469970703125	-2894.444580078125	555.0247192382812	-185.9175872802734	-3322.48876953125	496.7242126464844	-467.3807067871094	-3417.3662109375	473.7524719238281	-440.2331848144531	-2844.066162109375	442.4214477539062	-184.2879791259766	-3660.68505859375	354.2606811523438	-441.1947326660156	-2927.342041015625	417.4627075195312	-189.2954711914062	-3631.4619140625	517.3194580078125	-310.873046875	-2818.902099609375	342.2861938476562	-194.8849487304688	-2895.910400390625	326.0395812988281	-198.9062042236328	-3592.67431640625	482.6449584960938	-406.6864624023438	-2809.89501953125	160.2148284912109	-216.642333984375	-2607.14599609375	213.7069091796875	-223.70263671875	-2844.171875	109.8129272460938	-281.6347961425781	-2810.775146484375	91.20214080810548	-303.5530700683594	-2833.280029296875	84.45258331298828	-254.6056518554688	-3638.7861328125	534.9592895507812	-361.2624206542969
4	0.015	-2930.646728515625	1474.307739257812	-467.0590515136719	-2978.258544921875	1470.77734375	-176.9150543212891	-2994.78173828125	1026.294555664062	-467.5455932617188	-2987.330078125	1021.0888671875	-193.8785705566406	-2959.160888671875	973.1439819335938	-446.6183471679688	-3574.681640625	537.6237182617188	-337.7091369628906	-2962.091796875	980.0980834960938	-216.7139129638672	-3106.746826171875	923.3456420898438	-497.3539733886719	-3091.682861328125	892.6920776367188	-163.0678253173828	-3130.789794921875	1025.640502929688	-339.2264099121094	-3107.1220703125	685.8095703125	-494.1817321777344	-3400.75927734375	552.76318359375	-431.5825500488281	-3180.2080078125	707.0604858398438	-469.5253601074219	-3126.259521484375	588.3248291015625	-475.2851257324219	-2656.414306640625	155.9021911621094	-169.5751037597656	-3307.870361328125	572.0757446289062	-459.7874755859375	-3201.4609375	610.9072875976562	-454.7895812988281	-2894.64306640625	724.2877197265625	-165.16650390625	-3624.197021484375	284.7799987792969	-390.6981811523438	-2966.964599609375	691.7523193359375	-155.1734924316406	-2854.462158203125	637.0921020507812	-197.2946929931641	-2929.613037109375	600.23828125	-180.9856109619141	-3203.9033203125	549.719482421875	-471.6509704589844	-2873.930908203125	551.9494018554688	-186.6656951904297	-3295.23583984375	494.3029174804688	-468.0859680175781	-3390.28369140625	474.2549743652344	-440.3239440917969	-2824.81640625	438.3955078125	-183.7099304199219	-3636.9775390625	363.0834655761719	-439.8145141601562	-2908.26611328125	414.8208312988281	-190.5611419677734	-3603.43115234375	527.7974853515625	-311.7388610839844	-2802.14404296875	337.86181640625	-197.2554473876953	-2878.72265625	322.4992370605469	-200.4978179931641	-3564.716064453125	490.4944458007812	-406.5068664550781	-2794.458984375	156.2366180419922	-218.5743560791016	-2592.922607421875	208.1881103515625	-224.7013244628906	-2829.470947265625	104.6701583862305	-283.0929565429688	-2796.738525390625	87.0365219116211	-306.128662109375	-2818.849609375	80.55448913574219	-256.9573974609375	-3609.596923828125	543.9910278320312	-361.8167419433594
